<?xml version="1.0" encoding="UTF-8"?>
<svg xmlns="http://www.w3.org/2000/svg" xmlns:xlink="http://www.w3.org/1999/xlink" width="10pt" height="8pt" viewBox="0 0 10 8" version="1.1">
<g id="surface1">
<path style=" stroke:none;fill-rule:nonzero;fill:rgb(0%,0%,0%);fill-opacity:1;" d="M 8.351562 0.0117188 C 8.332031 0.0195312 7.566406 0.804688 6.085938 2.328125 C 4.851562 3.59375 3.84375 4.628906 3.835938 4.625 C 3.832031 4.625 3.238281 4.046875 1.980469 2.824219 C 1.832031 2.675781 1.695312 2.550781 1.679688 2.539062 C 1.640625 2.515625 1.59375 2.515625 1.539062 2.535156 C 1.484375 2.554688 1.507812 2.53125 0.683594 3.398438 C 0.242188 3.859375 0.0234375 4.09375 0.015625 4.117188 C -0.00390625 4.15625 -0.00390625 4.183594 0.0117188 4.222656 C 0.0234375 4.25 0.246094 4.472656 1.070312 5.273438 C 1.984375 6.167969 2.214844 6.394531 2.929688 7.128906 C 3.765625 7.988281 3.777344 8 3.835938 8 C 3.847656 8 3.863281 7.992188 3.875 7.984375 C 3.9375 7.945312 5.515625 6.335938 7.601562 4.199219 C 9.460938 2.285156 9.964844 1.761719 9.980469 1.730469 C 10 1.6875 10.003906 1.652344 9.992188 1.601562 C 9.984375 1.574219 9.882812 1.464844 9.234375 0.800781 C 8.730469 0.28125 8.476562 0.0273438 8.457031 0.015625 C 8.417969 -0.00390625 8.390625 -0.00390625 8.351562 0.0117188 Z M 8.351562 0.0117188 "/>
</g>
</svg>
